<svg xmlns="http://www.w3.org/2000/svg" viewBox="0 0 400 300" fill="none">
<defs>
<linearGradient id="cell" x1="0" y1="0" x2="1" y2="1">
<stop offset="0" stop-color="#1e293b"/><stop offset="0.55" stop-color="#0f172a"/><stop offset="1" stop-color="#164e63"/>
</linearGradient>
<linearGradient id="glow" x1="0" y1="0" x2="1" y2="0">
<stop offset="0" stop-color="#0d9488"/><stop offset="1" stop-color="#facc15"/>
</linearGradient>
<linearGradient id="metal" x1="0" y1="0" x2="0" y2="1">
<stop offset="0" stop-color="#f1f5f9"/><stop offset="1" stop-color="#94a3b8"/>
</linearGradient>
</defs>

<ellipse cx="200" cy="252" rx="110" ry="10" fill="#e2e8f0"/>
<rect x="110" y="48" width="180" height="196" rx="12" fill="url(#metal)"/>
<rect x="120" y="58" width="160" height="176" rx="8" fill="#f8fafc" stroke="#cbd5e1"/>
<rect x="136" y="76" width="128" height="56" rx="4" fill="#0f172a"/>
<text x="148" y="100" font-family="monospace" font-size="12" fill="#0d9488">7.6kW ACTIVE</text>
<rect x="148" y="110" width="76" height="6" rx="3" fill="url(#glow)"/>
<circle cx="152" cy="156" r="5" fill="#0d9488"/>
<text x="164" y="160" font-family="monospace" font-size="10" fill="#475569">GRID OK</text>
<circle cx="152" cy="178" r="5" fill="#facc15"/>
<text x="164" y="182" font-family="monospace" font-size="10" fill="#475569">PV INPUT</text>
<rect x="136" y="200" width="128" height="18" rx="3" fill="#e2e8f0"/>
<rect x="150" y="244" width="18" height="14" rx="2" fill="#475569"/>
<rect x="232" y="244" width="18" height="14" rx="2" fill="#475569"/>

</svg>
