<svg xmlns="http://www.w3.org/2000/svg" viewBox="0 0 400 300" fill="none">
<defs>
<linearGradient id="cell" x1="0" y1="0" x2="1" y2="1">
<stop offset="0" stop-color="#1e293b"/><stop offset="0.55" stop-color="#0f172a"/><stop offset="1" stop-color="#164e63"/>
</linearGradient>
<linearGradient id="glow" x1="0" y1="0" x2="1" y2="0">
<stop offset="0" stop-color="#0d9488"/><stop offset="1" stop-color="#facc15"/>
</linearGradient>
<linearGradient id="metal" x1="0" y1="0" x2="0" y2="1">
<stop offset="0" stop-color="#f1f5f9"/><stop offset="1" stop-color="#94a3b8"/>
</linearGradient>
</defs>

<ellipse cx="200" cy="250" rx="140" ry="10" fill="#e2e8f0"/>
<rect x="60" y="120" width="280" height="14" rx="4" fill="url(#metal)" transform="rotate(-8 200 127)"/>
<rect x="60" y="170" width="280" height="14" rx="4" fill="url(#metal)" transform="rotate(-8 200 177)"/>
<rect x="120" y="90" width="16" height="120" rx="3" fill="#94a3b8" transform="rotate(-8 128 150)"/>
<rect x="264" y="70" width="16" height="120" rx="3" fill="#94a3b8" transform="rotate(-8 272 130)"/>
<circle cx="130" cy="118" r="6" fill="#0f172a"/>
<circle cx="274" cy="98" r="6" fill="#0f172a"/>
<circle cx="136" cy="170" r="6" fill="#0f172a"/>
<circle cx="280" cy="150" r="6" fill="#0f172a"/>
<rect x="80" y="216" width="90" height="26" rx="4" fill="#475569"/>
<rect x="180" y="216" width="60" height="26" rx="4" fill="#94a3b8"/>
<rect x="250" y="216" width="70" height="26" rx="4" fill="#475569"/>
<text x="88" y="233" font-family="monospace" font-size="10" fill="#f8fafc">RAIL-KIT</text>

</svg>
