<svg xmlns="http://www.w3.org/2000/svg" viewBox="0 0 400 300" fill="none">
<defs>
<linearGradient id="cell" x1="0" y1="0" x2="1" y2="1">
<stop offset="0" stop-color="#1e293b"/><stop offset="0.55" stop-color="#0f172a"/><stop offset="1" stop-color="#164e63"/>
</linearGradient>
<linearGradient id="glow" x1="0" y1="0" x2="1" y2="0">
<stop offset="0" stop-color="#0d9488"/><stop offset="1" stop-color="#facc15"/>
</linearGradient>
<linearGradient id="metal" x1="0" y1="0" x2="0" y2="1">
<stop offset="0" stop-color="#f1f5f9"/><stop offset="1" stop-color="#94a3b8"/>
</linearGradient>
</defs>

<rect x="40" y="36" width="320" height="212" rx="6" fill="#cbd5e1"/>
<rect x="46" y="42" width="308" height="200" rx="3" fill="#0b1120"/>
<rect x="50.0" y="46.0" width="46.7" height="45.0" rx="2" fill="url(#cell)"/><line x1="73.3" y1="48.0" x2="73.3" y2="89.0" stroke="#334155" stroke-width="1"/><rect x="100.7" y="46.0" width="46.7" height="45.0" rx="2" fill="url(#cell)"/><line x1="124.0" y1="48.0" x2="124.0" y2="89.0" stroke="#334155" stroke-width="1"/><rect x="151.3" y="46.0" width="46.7" height="45.0" rx="2" fill="url(#cell)"/><line x1="174.7" y1="48.0" x2="174.7" y2="89.0" stroke="#334155" stroke-width="1"/><rect x="202.0" y="46.0" width="46.7" height="45.0" rx="2" fill="url(#cell)"/><line x1="225.3" y1="48.0" x2="225.3" y2="89.0" stroke="#334155" stroke-width="1"/><rect x="252.7" y="46.0" width="46.7" height="45.0" rx="2" fill="url(#cell)"/><line x1="276.0" y1="48.0" x2="276.0" y2="89.0" stroke="#334155" stroke-width="1"/><rect x="303.3" y="46.0" width="46.7" height="45.0" rx="2" fill="url(#cell)"/><line x1="326.7" y1="48.0" x2="326.7" y2="89.0" stroke="#334155" stroke-width="1"/><rect x="50.0" y="95.0" width="46.7" height="45.0" rx="2" fill="url(#cell)"/><line x1="73.3" y1="97.0" x2="73.3" y2="138.0" stroke="#334155" stroke-width="1"/><rect x="100.7" y="95.0" width="46.7" height="45.0" rx="2" fill="url(#cell)"/><line x1="124.0" y1="97.0" x2="124.0" y2="138.0" stroke="#334155" stroke-width="1"/><rect x="151.3" y="95.0" width="46.7" height="45.0" rx="2" fill="url(#cell)"/><line x1="174.7" y1="97.0" x2="174.7" y2="138.0" stroke="#334155" stroke-width="1"/><rect x="202.0" y="95.0" width="46.7" height="45.0" rx="2" fill="url(#cell)"/><line x1="225.3" y1="97.0" x2="225.3" y2="138.0" stroke="#334155" stroke-width="1"/><rect x="252.7" y="95.0" width="46.7" height="45.0" rx="2" fill="url(#cell)"/><line x1="276.0" y1="97.0" x2="276.0" y2="138.0" stroke="#334155" stroke-width="1"/><rect x="303.3" y="95.0" width="46.7" height="45.0" rx="2" fill="url(#cell)"/><line x1="326.7" y1="97.0" x2="326.7" y2="138.0" stroke="#334155" stroke-width="1"/><rect x="50.0" y="144.0" width="46.7" height="45.0" rx="2" fill="url(#cell)"/><line x1="73.3" y1="146.0" x2="73.3" y2="187.0" stroke="#334155" stroke-width="1"/><rect x="100.7" y="144.0" width="46.7" height="45.0" rx="2" fill="url(#cell)"/><line x1="124.0" y1="146.0" x2="124.0" y2="187.0" stroke="#334155" stroke-width="1"/><rect x="151.3" y="144.0" width="46.7" height="45.0" rx="2" fill="url(#cell)"/><line x1="174.7" y1="146.0" x2="174.7" y2="187.0" stroke="#334155" stroke-width="1"/><rect x="202.0" y="144.0" width="46.7" height="45.0" rx="2" fill="url(#cell)"/><line x1="225.3" y1="146.0" x2="225.3" y2="187.0" stroke="#334155" stroke-width="1"/><rect x="252.7" y="144.0" width="46.7" height="45.0" rx="2" fill="url(#cell)"/><line x1="276.0" y1="146.0" x2="276.0" y2="187.0" stroke="#334155" stroke-width="1"/><rect x="303.3" y="144.0" width="46.7" height="45.0" rx="2" fill="url(#cell)"/><line x1="326.7" y1="146.0" x2="326.7" y2="187.0" stroke="#334155" stroke-width="1"/><rect x="50.0" y="193.0" width="46.7" height="45.0" rx="2" fill="url(#cell)"/><line x1="73.3" y1="195.0" x2="73.3" y2="236.0" stroke="#334155" stroke-width="1"/><rect x="100.7" y="193.0" width="46.7" height="45.0" rx="2" fill="url(#cell)"/><line x1="124.0" y1="195.0" x2="124.0" y2="236.0" stroke="#334155" stroke-width="1"/><rect x="151.3" y="193.0" width="46.7" height="45.0" rx="2" fill="url(#cell)"/><line x1="174.7" y1="195.0" x2="174.7" y2="236.0" stroke="#334155" stroke-width="1"/><rect x="202.0" y="193.0" width="46.7" height="45.0" rx="2" fill="url(#cell)"/><line x1="225.3" y1="195.0" x2="225.3" y2="236.0" stroke="#334155" stroke-width="1"/><rect x="252.7" y="193.0" width="46.7" height="45.0" rx="2" fill="url(#cell)"/><line x1="276.0" y1="195.0" x2="276.0" y2="236.0" stroke="#334155" stroke-width="1"/><rect x="303.3" y="193.0" width="46.7" height="45.0" rx="2" fill="url(#cell)"/><line x1="326.7" y1="195.0" x2="326.7" y2="236.0" stroke="#334155" stroke-width="1"/>
<rect x="46" y="42" width="308" height="200" rx="3" stroke="#475569" stroke-width="1.5"/>
<rect x="120" y="252" width="160" height="8" rx="2" fill="url(#metal)" opacity="0"/>
<path d="M110 248 L90 282 H310 L290 248" fill="#94a3b8" opacity="0.35"/>
<rect x="84" y="280" width="232" height="6" rx="3" fill="#475569"/>
<rect x="48" y="252" width="88" height="18" fill="#0f172a"/><text x="56" y="265" font-family="monospace" font-size="11" fill="#facc15">450W MONO</text>

</svg>
